<svg id="visual" viewBox="0 0 3000 3000" width="3000" height="3000" xmlns="http://www.w3.org/2000/svg" xmlns:xlink="http://www.w3.org/1999/xlink" version="1.1"><rect x="0" y="0" width="3000" height="3000" fill="#071b2a"></rect><g fill="none" stroke="#a65a29" stroke-width="4"><path d="M0 -220.9L49.6 -68.2L210 -68.2L80.2 26.1L129.8 178.7L0 84.4L-129.8 178.7L-80.2 26.1L-210 -68.2L-49.6 -68.2Z" transform="translate(2239 2511)"></path><path d="M0 -41.5L9.3 -12.8L39.5 -12.8L15.1 4.9L24.4 33.6L0 15.9L-24.4 33.6L-15.1 4.9L-39.5 -12.8L-9.3 -12.8Z" transform="translate(200 131)"></path><path d="M0 -192.5L43.2 -59.5L183.1 -59.5L69.9 22.7L113.2 155.8L0 73.5L-113.2 155.8L-69.9 22.7L-183.1 -59.5L-43.2 -59.5Z" transform="translate(818 2529)"></path><path d="M0 -113.3L25.4 -35L107.7 -35L41.1 13.4L66.6 91.6L0 43.3L-66.6 91.6L-41.1 13.4L-107.7 -35L-25.4 -35Z" transform="translate(593 1169)"></path><path d="M0 -212.4L47.7 -65.6L202 -65.6L77.1 25.1L124.8 171.8L0 81.1L-124.8 171.8L-77.1 25.1L-202 -65.6L-47.7 -65.6Z" transform="translate(616 482)"></path><path d="M0 -187.8L42.2 -58L178.6 -58L68.2 22.2L110.4 152L0 71.7L-110.4 152L-68.2 22.2L-178.6 -58L-42.2 -58Z" transform="translate(78 2956)"></path><path d="M0 -137.8L30.9 -42.6L131.1 -42.6L50.1 16.3L81 111.5L0 52.6L-81 111.5L-50.1 16.3L-131.1 -42.6L-30.9 -42.6Z" transform="translate(1220 1698)"></path><path d="M0 -205.8L46.2 -63.6L195.7 -63.6L74.7 24.3L120.9 166.5L0 78.6L-120.9 166.5L-74.7 24.3L-195.7 -63.6L-46.2 -63.6Z" transform="translate(1242 2332)"></path><path d="M0 -50L11.2 -15.5L47.6 -15.5L18.2 5.9L29.4 40.5L0 19.1L-29.4 40.5L-18.2 5.9L-47.6 -15.5L-11.2 -15.5Z" transform="translate(331 2482)"></path><path d="M0 -98.2L22 -30.3L93.4 -30.3L35.7 11.6L57.7 79.4L0 37.5L-57.7 79.4L-35.7 11.6L-93.4 -30.3L-22 -30.3Z" transform="translate(1066 109)"></path><path d="M0 -49.1L11 -15.2L46.7 -15.2L17.8 5.8L28.8 39.7L0 18.7L-28.8 39.7L-17.8 5.8L-46.7 -15.2L-11 -15.2Z" transform="translate(2748 1161)"></path><path d="M0 -40.6L9.1 -12.5L38.6 -12.5L14.7 4.8L23.9 32.8L0 15.5L-23.9 32.8L-14.7 4.8L-38.6 -12.5L-9.1 -12.5Z" transform="translate(2890 1727)"></path><path d="M0 -144.4L32.4 -44.6L137.3 -44.6L52.5 17L84.9 116.8L0 55.2L-84.9 116.8L-52.5 17L-137.3 -44.6L-32.4 -44.6Z" transform="translate(532 1714)"></path><path d="M0 -186.9L42 -57.7L177.7 -57.7L67.9 22.1L109.8 151.2L0 71.4L-109.8 151.2L-67.9 22.1L-177.7 -57.7L-42 -57.7Z" transform="translate(2980 2974)"></path><path d="M0 -182.2L40.9 -56.3L173.2 -56.3L66.2 21.5L107.1 147.4L0 69.6L-107.1 147.4L-66.2 21.5L-173.2 -56.3L-40.9 -56.3Z" transform="translate(84 1969)"></path><path d="M0 -145.3L32.6 -44.9L138.2 -44.9L52.8 17.2L85.4 117.6L0 55.5L-85.4 117.6L-52.8 17.2L-138.2 -44.9L-32.6 -44.9Z" transform="translate(1784 2841)"></path><path d="M0 -152L34.1 -47L144.5 -47L55.2 17.9L89.3 122.9L0 58L-89.3 122.9L-55.2 17.9L-144.5 -47L-34.1 -47Z" transform="translate(2314 641)"></path><path d="M0 -54.7L12.3 -16.9L52.1 -16.9L19.9 6.5L32.2 44.3L0 20.9L-32.2 44.3L-19.9 6.5L-52.1 -16.9L-12.3 -16.9Z" transform="translate(1222 2881)"></path><path d="M0 -203.9L45.8 -63L193.9 -63L74.1 24.1L119.8 164.9L0 77.9L-119.8 164.9L-74.1 24.1L-193.9 -63L-45.8 -63Z" transform="translate(2803 683)"></path><path d="M0 -115.1L25.9 -35.6L109.5 -35.6L41.8 13.6L67.7 93.2L0 44L-67.7 93.2L-41.8 13.6L-109.5 -35.6L-25.9 -35.6Z" transform="translate(1874 1212)"></path><path d="M0 -69.8L15.7 -21.6L66.4 -21.6L25.4 8.2L41.1 56.5L0 26.7L-41.1 56.5L-25.4 8.2L-66.4 -21.6L-15.7 -21.6Z" transform="translate(90 1254)"></path><path d="M0 -110.4L24.8 -34.1L105 -34.1L40.1 13L64.9 89.3L0 42.2L-64.9 89.3L-40.1 13L-105 -34.1L-24.8 -34.1Z" transform="translate(2065 2008)"></path><path d="M0 -162.3L36.4 -50.2L154.4 -50.2L59 19.2L95.4 131.3L0 62L-95.4 131.3L-59 19.2L-154.4 -50.2L-36.4 -50.2Z" transform="translate(1062 994)"></path><path d="M0 -109.5L24.6 -33.8L104.1 -33.8L39.8 12.9L64.4 88.6L0 41.8L-64.4 88.6L-39.8 12.9L-104.1 -33.8L-24.6 -33.8Z" transform="translate(1357 528)"></path></g></svg>